<?xml version="1.0" standalone="no"?>
<!DOCTYPE svg PUBLIC "-//W3C//DTD SVG 20010904//EN"
 "http://www.w3.org/TR/2001/REC-SVG-20010904/DTD/svg10.dtd">
<svg version="1.0" xmlns="http://www.w3.org/2000/svg"
 width="1052.000000pt" height="831.000000pt" viewBox="0 0 1052.000000 831.000000"
 preserveAspectRatio="xMidYMid meet">
<metadata>
Created by potrace 1.16, written by Peter Selinger 2001-2019
</metadata>
<g transform="translate(0.000000,831.000000) scale(0.100000,-0.100000)"
fill="#000000" stroke="none">
<path d="M5000 7969 c-74 -10 -270 -50 -270 -55 0 -2 37 -22 83 -44 176 -84
347 -204 496 -348 l91 -88 78 41 c126 68 362 223 362 239 0 9 -164 127 -228
164 -37 22 -100 54 -141 71 -73 31 -74 31 -240 30 -91 -1 -195 -5 -231 -10z"/>
<path d="M5550 7937 c100 -40 212 -95 292 -144 l58 -34 50 42 c28 23 47 46 43
50 -29 26 -338 104 -458 114 l-70 6 85 -34z"/>
<path d="M4529 7851 c-53 -21 -132 -55 -176 -75 l-80 -38 -27 -86 c-42 -139
-56 -227 -63 -391 l-6 -154 84 7 c194 16 417 58 628 118 117 33 361 126 361
136 0 15 -173 213 -241 276 -132 122 -314 246 -359 245 -14 0 -68 -17 -121
-38z"/>
<path d="M6102 7719 c-29 -34 -52 -64 -52 -67 0 -4 36 -40 80 -80 l80 -74 45
95 c25 52 45 99 45 106 0 8 -128 81 -143 81 -2 0 -27 -27 -55 -61z"/>
<path d="M3743 7316 c-86 -90 -150 -172 -142 -180 2 -2 23 -7 46 -11 l42 -7
42 84 c22 46 57 109 76 141 19 32 33 60 30 63 -2 3 -44 -38 -94 -90z"/>
<path d="M6199 7083 c-67 -113 -157 -238 -238 -333 -35 -41 -71 -83 -79 -92
-12 -15 -11 -26 12 -95 83 -253 117 -463 123 -770 3 -134 8 -243 10 -243 3 0
54 25 114 56 108 55 342 205 408 261 l34 29 -12 155 c-22 275 -75 537 -157
771 -35 99 -147 348 -157 348 -3 0 -29 -39 -58 -87z"/>
<path d="M5264 7100 c-263 -127 -623 -217 -950 -236 l-114 -7 6 -36 c16 -96
67 -289 107 -402 45 -128 135 -329 147 -329 3 0 51 15 106 34 315 106 635 286
929 522 101 81 99 69 30 233 -63 147 -127 266 -145 268 -8 1 -60 -20 -116 -47z"/>
<path d="M3412 6833 c-98 -203 -154 -378 -187 -583 -14 -92 -20 -190 -10 -190
2 0 48 -11 102 -24 54 -14 117 -27 139 -31 l41 -6 6 213 c6 239 22 368 73 567
19 74 31 138 27 141 -5 4 -28 12 -53 19 -25 7 -52 14 -61 17 -11 3 -31 -29
-77 -123z"/>
<path d="M3795 6871 c-13 -44 -36 -224 -46 -366 -10 -148 -9 -244 8 -449 l6
-79 116 7 c128 8 322 34 333 45 5 4 -5 40 -21 81 -71 186 -127 444 -138 637
l-6 112 -56 6 c-31 3 -86 9 -123 14 -57 6 -69 5 -73 -8z"/>
<path d="M7171 6511 c-57 -173 -170 -386 -291 -546 l-38 -50 -5 -190 c-12
-390 -103 -749 -273 -1074 -30 -57 -52 -106 -49 -110 4 -3 67 -6 140 -6 128 0
134 1 160 25 50 46 181 229 243 338 274 486 341 1039 190 1590 -17 62 -34 114
-38 117 -4 2 -21 -40 -39 -94z"/>
<path d="M5594 6394 c-276 -222 -648 -409 -981 -494 -24 -6 -43 -13 -43 -16 0
-11 111 -173 183 -267 41 -54 125 -154 187 -222 90 -100 116 -124 133 -120 12
2 70 11 129 20 132 20 275 54 430 102 117 36 118 36 124 71 14 72 -4 522 -26
667 -21 137 -54 302 -62 311 -3 2 -36 -21 -74 -52z"/>
<path d="M3200 5907 l0 -104 63 -60 c91 -88 300 -234 313 -220 3 2 -4 42 -15
88 -11 46 -25 120 -31 164 -19 131 -12 121 -89 144 -38 12 -106 37 -151 56
-45 19 -84 35 -86 35 -2 0 -4 -47 -4 -103z"/>
<path d="M3974 5159 c14 -48 176 -366 231 -453 211 -333 503 -615 796 -766
l66 -34 32 23 c52 37 186 197 266 316 64 95 214 382 204 388 -2 1 -58 29 -124
62 -127 64 -310 181 -411 262 l-60 50 -180 6 c-296 11 -542 60 -808 163 -16 6
-17 4 -12 -17z"/>
<path d="M5681 5138 c-36 -13 -236 -65 -304 -78 -31 -6 -55 -16 -51 -21 3 -5
74 -55 157 -110 119 -79 152 -97 159 -85 13 24 70 265 66 285 -2 15 -7 17 -27
9z"/>
<path d="M5689 4491 c-111 -189 -311 -419 -468 -536 -44 -33 -80 -63 -81 -68
-1 -22 64 -29 215 -24 160 5 270 20 420 57 79 19 81 21 161 103 90 92 195 230
267 349 26 43 47 79 47 81 0 2 -33 7 -72 11 -84 8 -258 45 -369 79 l-76 24
-44 -76z"/>
<path d="M6615 4460 c-27 -5 -78 -9 -111 -9 -42 -1 -64 -5 -67 -14 -13 -33
-163 -220 -241 -301 -48 -49 -85 -91 -82 -93 8 -8 182 85 286 154 101 67 259
193 309 247 l24 26 -34 -1 c-19 -1 -56 -5 -84 -9z"/>
<path d="M6957 2945 c-127 -47 -207 -169 -207 -317 l0 -58 -55 0 -55 0 0 -100
0 -100 55 0 55 0 0 -375 0 -375 135 0 135 0 0 375 0 375 115 0 115 0 0 100 0
100 -116 0 -117 0 6 51 c14 118 96 153 183 77 19 -17 36 -29 38 -27 2 2 25 44
52 93 l48 89 -39 34 c-58 50 -131 73 -228 72 -45 0 -99 -7 -120 -14z"/>
<path d="M800 2240 l0 -620 140 0 140 0 0 245 0 245 270 0 270 0 0 125 0 125
-270 0 -270 0 0 125 0 125 285 0 285 0 0 125 0 125 -425 0 -425 0 0 -620z"/>
<path d="M3940 2720 l0 -140 -55 0 -55 0 0 -100 0 -100 54 0 55 0 3 -272 c3
-260 4 -275 26 -319 31 -63 86 -117 152 -148 47 -22 69 -26 145 -26 100 0 153
18 226 76 46 36 47 29 -18 147 l-45 84 -27 -25 c-59 -56 -105 -61 -153 -18
l-33 29 -3 236 -3 236 115 0 116 0 0 100 0 100 -115 0 -115 0 0 140 0 140
-135 0 -135 0 0 -140z"/>
<path d="M7460 2720 l0 -140 -55 0 -55 0 0 -100 0 -100 55 0 55 0 0 -260 c0
-237 2 -264 20 -314 25 -66 81 -126 152 -163 47 -24 64 -27 148 -28 84 0 102
3 150 27 30 15 70 40 89 56 l34 28 -52 97 -53 98 -34 -30 c-46 -41 -97 -50
-132 -24 -49 36 -52 52 -52 291 l0 222 115 0 115 0 0 100 0 100 -115 0 -115 0
0 140 0 140 -135 0 -135 0 0 -140z"/>
<path d="M8670 2239 l0 -622 293 6 c334 6 393 15 525 78 146 71 245 196 288
368 25 102 16 323 -18 418 -51 143 -163 260 -305 318 -112 45 -202 55 -504 55
l-279 0 0 -621z m634 341 c79 -30 146 -97 175 -173 57 -154 27 -341 -71 -434
-18 -18 -60 -44 -93 -60 -56 -25 -71 -28 -212 -31 l-153 -4 0 367 0 367 148
-4 c123 -4 157 -8 206 -28z"/>
<path d="M2148 2590 c-89 -11 -168 -35 -248 -75 -100 -50 -100 -51 -39 -142
28 -43 55 -82 59 -86 4 -5 32 5 61 21 158 88 325 82 365 -13 27 -65 27 -65
-108 -65 -253 0 -378 -47 -441 -165 -18 -33 -22 -57 -22 -135 0 -87 3 -100 30
-149 101 -183 389 -229 540 -86 l35 32 0 -53 0 -54 125 0 126 0 -3 368 c-3
362 -3 368 -27 419 -62 139 -235 208 -453 183z m212 -590 c0 -48 -24 -95 -65
-126 -66 -50 -189 -44 -234 10 -19 22 -16 84 5 107 26 29 67 37 187 38 l107 1
0 -30z"/>
<path d="M3238 2590 c-178 -23 -337 -147 -399 -310 -29 -77 -36 -214 -15 -304
22 -94 58 -155 132 -226 154 -149 391 -183 588 -86 57 29 176 121 176 138 0 6
-35 49 -77 97 -42 47 -78 88 -79 89 -1 2 -19 -14 -39 -37 -110 -121 -289 -126
-389 -10 -95 111 -66 297 58 373 96 60 238 42 336 -41 36 -32 44 -35 54 -22 6
9 38 51 71 94 l60 78 -49 43 c-103 94 -277 144 -428 124z"/>
<path d="M4942 2589 c-202 -26 -328 -179 -292 -352 21 -103 99 -166 290 -232
133 -46 180 -75 180 -114 0 -49 -31 -66 -119 -65 -86 1 -165 25 -240 74 -26
16 -52 30 -57 30 -5 0 -35 -37 -66 -83 -65 -93 -66 -86 27 -142 165 -98 412
-123 548 -54 54 28 115 86 139 133 15 28 23 66 26 123 4 74 2 88 -21 135 -35
71 -95 109 -261 166 -72 24 -143 50 -158 58 -38 20 -47 60 -19 87 19 19 33 22
104 22 76 0 90 -3 161 -38 43 -22 80 -36 83 -33 3 3 27 43 53 88 55 95 56 91
-35 136 -112 56 -228 77 -343 61z"/>
<path d="M5945 2590 c-340 -46 -524 -402 -370 -716 80 -164 251 -264 450 -264
151 0 278 53 373 154 100 108 140 225 129 380 -7 103 -36 180 -96 259 -109
141 -294 212 -486 187z m145 -240 c52 -14 109 -67 136 -124 36 -76 34 -185 -4
-257 -94 -180 -356 -153 -412 42 -6 19 -10 63 -10 99 0 170 136 283 290 240z"/>
<path d="M2450 725 c0 -228 1 -235 20 -235 19 0 20 7 20 235 0 228 -1 235 -20
235 -19 0 -20 -7 -20 -235z"/>
<path d="M5807 939 c-20 -15 -28 -33 -33 -70 -6 -46 -8 -49 -35 -49 -19 0 -29
-5 -29 -15 0 -10 10 -15 30 -15 l30 0 0 -150 c0 -143 1 -150 20 -150 19 0 20
7 20 150 l0 150 55 0 c42 0 55 3 55 15 0 12 -13 15 -55 15 -53 0 -55 1 -55 28
0 15 7 38 16 51 15 20 22 23 59 17 33 -4 44 -2 49 10 4 9 -3 18 -20 24 -40 16
-79 12 -107 -11z"/>
<path d="M1733 915 c-36 -16 -63 -60 -63 -105 0 -64 30 -88 154 -122 111 -30
145 -80 92 -133 -45 -45 -151 -42 -218 6 -24 18 -29 18 -34 5 -8 -22 3 -36 50
-57 52 -24 155 -25 202 -3 77 37 86 145 16 186 -15 9 -56 24 -92 33 -86 22
-118 40 -126 71 -21 85 103 132 206 79 28 -14 31 -14 37 0 3 9 2 20 -3 24 -34
31 -165 41 -221 16z"/>
<path d="M5180 710 c0 -213 1 -220 20 -220 19 0 20 7 20 220 0 213 -1 220 -20
220 -19 0 -20 -7 -20 -220z"/>
<path d="M7620 855 c0 -32 -2 -35 -30 -35 -20 0 -30 -5 -30 -15 0 -10 10 -15
30 -15 l30 0 0 -124 c0 -110 2 -126 21 -150 17 -21 29 -26 67 -26 55 0 77 11
69 34 -5 13 -11 15 -26 6 -29 -15 -56 -12 -74 8 -14 15 -17 41 -17 135 l0 117
50 0 c38 0 50 4 50 15 0 11 -12 15 -50 15 l-50 0 0 35 c0 28 -4 35 -20 35 -16
0 -20 -7 -20 -35z"/>
<path d="M2110 797 c-100 -67 -100 -217 0 -284 46 -32 134 -32 180 0 100 67
100 217 0 284 -46 32 -134 32 -180 0z m171 -43 c58 -56 57 -143 -2 -200 -25
-24 -39 -29 -79 -29 -40 0 -54 5 -80 30 -70 67 -52 188 35 226 35 15 95 3 126
-27z"/>
<path d="M2610 710 c0 -124 11 -164 56 -199 40 -32 141 -27 179 9 l25 23 0
-26 c0 -20 5 -27 20 -27 19 0 20 7 20 165 0 158 -1 165 -20 165 -19 0 -20 -7
-20 -94 0 -52 -5 -107 -11 -123 -25 -66 -80 -94 -145 -73 -51 17 -64 55 -64
185 0 98 -1 105 -20 105 -19 0 -20 -7 -20 -110z"/>
<path d="M3081 803 c-54 -28 -75 -64 -79 -136 -6 -109 43 -167 146 -175 61 -4
104 10 132 43 23 28 -4 41 -35 17 -56 -44 -133 -36 -180 19 -20 24 -25 41 -25
84 0 43 5 60 25 84 47 55 124 63 180 19 20 -15 29 -18 38 -9 8 8 5 18 -16 38
-35 36 -133 44 -186 16z"/>
<path d="M3581 798 c-59 -40 -76 -72 -76 -143 0 -71 17 -103 75 -142 64 -44
177 -24 224 40 28 39 33 140 9 186 -28 54 -64 75 -136 79 -52 3 -67 0 -96 -20z
m159 -36 c39 -29 51 -61 47 -121 -3 -46 -9 -59 -35 -82 -43 -39 -92 -46 -138
-22 -67 35 -92 115 -56 182 37 68 121 88 182 43z"/>
<path d="M3920 655 c0 -158 1 -165 20 -165 19 0 20 7 20 101 0 118 14 159 65
183 42 20 68 20 106 1 41 -22 49 -49 49 -176 0 -102 1 -109 20 -109 19 0 20 7
20 115 0 135 -12 175 -61 200 -47 25 -140 17 -174 -15 l-25 -23 0 26 c0 20 -5
27 -20 27 -19 0 -20 -7 -20 -165z"/>
<path d="M4394 810 c-31 -12 -72 -66 -84 -111 -21 -75 14 -158 80 -191 46 -23
126 -23 170 0 38 21 44 31 31 51 -7 11 -15 9 -41 -10 -65 -48 -154 -24 -192
52 l-18 34 140 3 140 3 0 32 c0 45 -29 98 -69 124 -36 24 -114 31 -157 13z
m122 -36 c32 -15 64 -57 64 -84 0 -6 -41 -10 -115 -10 -104 0 -115 2 -115 18
0 27 29 63 64 78 41 18 61 17 102 -2z"/>
<path d="M4725 809 c-33 -19 -45 -41 -45 -80 0 -48 31 -73 108 -90 78 -16 104
-34 100 -67 -2 -16 -13 -32 -28 -40 -30 -16 -106 -10 -148 12 -26 13 -32 13
-42 1 -9 -11 -6 -17 16 -32 22 -14 48 -18 110 -18 73 0 85 3 108 24 18 17 26
35 26 58 0 49 -33 77 -106 91 -33 7 -70 19 -82 28 -25 17 -29 56 -7 74 25 20
88 23 130 6 31 -13 40 -14 46 -4 5 8 2 19 -7 28 -18 19 -151 25 -179 9z"/>
<path d="M5350 655 c0 -158 1 -165 20 -165 19 0 20 7 20 108 0 88 3 113 20
139 25 42 82 61 135 43 52 -17 65 -54 65 -185 0 -98 1 -105 20 -105 19 0 20 7
20 110 0 126 -15 177 -59 203 -50 29 -146 20 -184 -18 -16 -15 -17 -15 -17 9
0 19 -5 26 -20 26 -19 0 -20 -7 -20 -165z"/>
<path d="M6011 798 c-59 -40 -76 -72 -76 -143 0 -71 17 -103 75 -142 64 -44
177 -24 224 40 28 39 33 140 9 186 -28 54 -64 75 -136 79 -52 3 -67 0 -96 -20z
m159 -36 c39 -29 51 -61 47 -121 -3 -46 -9 -59 -35 -82 -43 -39 -92 -46 -138
-22 -67 35 -92 115 -56 182 37 68 121 88 182 43z"/>
<path d="M6350 655 c0 -158 1 -165 20 -165 19 0 20 7 20 105 0 75 4 115 15
135 15 30 61 60 90 60 8 0 15 7 15 15 0 22 -48 19 -87 -5 -33 -20 -33 -20 -33
0 0 13 -7 20 -20 20 -19 0 -20 -7 -20 -165z"/>
<path d="M6590 655 c0 -158 1 -165 20 -165 19 0 20 7 20 108 0 88 3 113 20
139 25 42 85 62 131 43 46 -19 59 -60 59 -185 0 -98 1 -105 20 -105 19 0 20 7
20 105 0 77 4 114 16 136 30 59 128 75 170 28 16 -18 20 -40 22 -145 3 -114 5
-124 23 -124 18 0 19 8 19 115 0 133 -13 175 -59 199 -61 32 -160 14 -194 -35
l-15 -21 -7 21 c-16 50 -131 69 -192 31 -33 -20 -33 -20 -33 0 0 13 -7 20 -20
20 -19 0 -20 -7 -20 -165z"/>
<path d="M7270 802 c-19 -9 -35 -24 -35 -32 0 -18 15 -17 75 6 74 28 140 -3
140 -66 0 -30 0 -30 -57 -30 -122 -1 -173 -29 -173 -97 0 -25 8 -43 29 -64 26
-26 37 -29 89 -29 45 0 66 5 86 21 l26 20 0 -20 c0 -14 6 -21 20 -21 19 0 20
7 20 125 0 137 -9 169 -51 191 -39 19 -126 18 -169 -4z m180 -188 c0 -36 -16
-61 -50 -79 -85 -44 -181 24 -123 87 13 14 31 18 95 18 77 0 78 0 78 -26z"/>
<path d="M8060 797 c-100 -67 -100 -217 0 -284 46 -32 134 -32 180 0 40 26 47
42 24 51 -11 4 -26 -1 -40 -15 -32 -30 -91 -35 -131 -10 -45 28 -66 65 -66
116 0 51 21 88 66 116 40 25 99 20 131 -10 14 -14 29 -19 40 -15 23 9 16 25
-24 52 -46 31 -134 31 -180 -1z"/>
<path d="M8378 799 c-25 -13 -35 -24 -32 -34 8 -19 9 -19 61 6 76 37 145 11
159 -57 l6 -31 -86 -5 c-94 -6 -130 -22 -147 -65 -14 -37 6 -90 41 -108 42
-21 118 -19 158 5 32 20 32 20 32 0 0 -13 7 -20 20 -20 19 0 20 7 20 108 0
182 -24 222 -134 222 -41 -1 -73 -7 -98 -21z m192 -185 c0 -16 -13 -39 -34
-60 -28 -28 -42 -34 -75 -34 -75 0 -114 67 -63 108 10 7 47 12 94 12 77 0 78
0 78 -26z"/>
<path d="M8744 810 c-30 -12 -54 -49 -54 -83 0 -42 38 -73 106 -87 71 -15 101
-28 109 -48 9 -25 -22 -61 -61 -68 -36 -7 -108 9 -132 29 -10 8 -16 7 -23 -4
-14 -22 -11 -26 31 -43 92 -37 209 -11 224 50 16 61 -27 100 -129 118 -83 15
-108 56 -59 95 31 25 71 27 120 6 38 -16 54 -13 54 10 0 29 -132 47 -186 25z"/>
</g>
</svg>
